<svg width="24" height="24" viewBox="0 0 24 24" fill="none" xmlns="http://www.w3.org/2000/svg">
<g id="Frame 1000001534">
<path id="Ellipse 847" d="M15.5352 2.64285C15.8692 2.7691 16.1947 2.91272 16.5105 3.07261C16.9178 3.27878 17.309 3.512 17.6819 3.7699M19.7116 5.63321C21.1411 7.36265 22 9.58102 22 12C22 17.5228 17.5228 22 12 22C6.47715 22 2 17.5228 2 12C2 6.47715 6.47715 2 12 2C12.1576 2 12.3143 2.00364 12.47 2.01085" stroke="#3B3B3B" stroke-width="1.5" stroke-linecap="round"/>
<path id="Subtract" opacity="0.6" fill-rule="evenodd" clip-rule="evenodd" d="M12 18.3401C15.5015 18.3401 18.3401 15.5015 18.3401 12C18.3401 8.49847 15.5015 5.65991 12 5.65991C8.49847 5.65991 5.65991 8.49847 5.65991 12C5.65991 15.5015 8.49847 18.3401 12 18.3401ZM12 8.67318C12.3752 8.67318 12.6793 8.97731 12.6793 9.35247V11.3207H14.6486C15.0238 11.3207 15.3279 11.6248 15.3279 12C15.3279 12.3752 15.0238 12.6793 14.6486 12.6793H12.6793V14.6475C12.6793 15.0227 12.3752 15.3268 12 15.3268C11.6248 15.3268 11.3207 15.0227 11.3207 14.6475V12.6793H9.35358C8.97842 12.6793 8.67428 12.3752 8.67428 12C8.67428 11.6248 8.97842 11.3207 9.35358 11.3207H11.3207V9.35247C11.3207 8.97731 11.6248 8.67318 12 8.67318Z" fill="#226CF5"/>
</g>
</svg>
