<svg width="24" height="24" viewBox="0 0 24 24" fill="none" xmlns="http://www.w3.org/2000/svg">
<g id="Frame 1000001531">
<g id="Group 1000001083">
<rect id="Rectangle 9132" opacity="0.6" x="4.6087" y="2.86957" width="17.3913" height="19.1304" rx="2" fill="#226CF5"/>
<path id="Rectangle 9134" d="M18.3913 2H4.7382C4.18591 2 3.7382 2.44772 3.7382 3V8.32043C3.7382 9.90005 3.58225 11.4758 3.27262 13.0248L2.23907 18.1953C2.11539 18.8141 2.58867 19.3913 3.21967 19.3913H16.8323C17.309 19.3913 17.7194 19.0548 17.8129 18.5874L18.9252 13.0261C19.2352 11.4763 19.3913 9.89959 19.3913 8.31904V7.65217V5.04348V3.52174V3C19.3913 2.44771 18.9436 2 18.3913 2Z" fill="white"/>
<path id="Rectangle 9133" d="M19.3913 2H4.7382C4.18591 2 3.7382 2.44772 3.7382 3V8.32043C3.7382 9.90005 3.58225 11.4758 3.27262 13.0248L2.23907 18.1953C2.11539 18.8141 2.58867 19.3913 3.21967 19.3913H16.8323C17.309 19.3913 17.7194 19.0549 17.8129 18.5874L18.9252 13.0261C19.2352 11.4763 19.3913 9.89959 19.3913 8.31904V7.65217M19.3913 5.04348V3.52174" stroke="#3B3B3B" stroke-width="1.5" stroke-linecap="round" stroke-linejoin="round"/>
<line id="Line 442" x1="7.96741" y1="9.07611" x2="14.2935" y2="9.07611" stroke="#3B3B3B" stroke-width="1.5" stroke-linecap="round"/>
<line id="Line 443" x1="7.96741" y1="11.6848" x2="14.2935" y2="11.6848" stroke="#3B3B3B" stroke-width="1.5" stroke-linecap="round"/>
<line id="Line 444" x1="7.96741" y1="14.2935" x2="14.2935" y2="14.2935" stroke="#3B3B3B" stroke-width="1.5" stroke-linecap="round"/>
</g>
</g>
</svg>
