<svg width="24" height="24" viewBox="0 0 24 24" fill="none" xmlns="http://www.w3.org/2000/svg">
<g id="Frame 1000001532">
<g id="Group 1000001080">
<path id="Vector 2220" d="M3.91624 19.0453L1.38545 20.8464C1.03193 17.0271 2.64409 14.6399 3.49437 13.9237C5.83563 12.2127 8.33449 12.8168 9.29125 13.3327L13.1769 15.1277L15.8761 14.177L16.6442 13.888C17.8299 13.442 19.1623 13.9467 19.755 15.0663C20.9832 14.582 22.367 15.2223 22.793 16.4719L22.8548 16.6534L11.8875 21.3047C10.8439 21.7473 9.6615 21.7263 8.63425 21.2469L3.91624 19.0453Z" fill="white"/>
<path id="Vector 2219" d="M1.14648 20.8234L3.67727 19.0224L8.39528 21.224C9.42253 21.7033 10.6049 21.7243 11.6485 21.2817L22.6159 16.6304L22.554 16.449C22.128 15.1994 20.7443 14.5591 19.516 15.0433V15.0433M16.1645 16.3391L19.516 15.0433M19.516 15.0433V15.0433C18.9233 13.9237 17.5909 13.419 16.4052 13.8651L15.6371 14.154M9.05229 16.2645L11.9913 17.5968C12.6872 17.9123 13.5052 17.5778 13.7806 16.865V16.865C14.0334 16.2108 13.7346 15.4728 13.0979 15.1787L9.05229 13.3098C8.61005 13.0713 7.83834 12.814 6.90501 12.7752C6.77056 12.7696 6.63275 12.7685 6.49209 12.7727C6.39231 12.7757 6.2911 12.7813 6.18864 12.7898M3.2554 13.9007C3.33464 13.8428 3.41407 13.7875 3.49361 13.7348C3.5616 13.6898 3.62967 13.6466 3.69779 13.6053C3.74716 13.5753 3.79655 13.5463 3.84594 13.5182C3.89986 13.4875 3.95379 13.4579 4.0077 13.4294C4.06231 13.4006 4.1169 13.3728 4.17146 13.3462" stroke="#3B3B3B" stroke-width="1.5" stroke-linecap="round" stroke-linejoin="round"/>
<path id="Subtract" opacity="0.6" fill-rule="evenodd" clip-rule="evenodd" d="M13.5623 11.8214C16.2744 11.8214 18.473 9.62277 18.473 6.91068C18.473 4.19858 16.2744 2 13.5623 2C10.8502 2 8.65161 4.19858 8.65161 6.91068C8.65161 9.62277 10.8502 11.8214 13.5623 11.8214ZM14.2586 5.66642C14.2586 5.28084 13.946 4.96827 13.5605 4.96827C13.1749 4.96827 12.8623 5.28084 12.8623 5.66642V8.15493C12.8623 8.54051 13.1749 8.85308 13.5605 8.85308C13.946 8.85308 14.2586 8.54051 14.2586 8.15493V5.66642Z" fill="#226CF5"/>
</g>
</g>
</svg>
