<svg width="153" height="16" viewBox="0 0 153 16" fill="none" xmlns="http://www.w3.org/2000/svg">
<g id="coursefinder.ai">
<path d="M5.68049 4.16C6.50124 4.16 7.214 4.24533 7.81877 4.416C8.43794 4.58667 8.91311 4.82844 9.24429 5.14133C9.58987 5.44 9.76266 5.80267 9.76266 6.22933C9.76266 6.51378 9.67627 6.784 9.50348 7.04C9.33069 7.28178 9.0787 7.40267 8.74752 7.40267C8.51713 7.40267 8.32274 7.37422 8.16435 7.31733C8.02036 7.24622 7.89076 7.16089 7.77557 7.06133C7.66038 6.96178 7.52359 6.86933 7.36519 6.784C7.2212 6.69867 6.99801 6.63467 6.69563 6.592C6.40765 6.53511 6.19166 6.50667 6.04767 6.50667C5.31331 6.50667 4.68694 6.66311 4.16857 6.976C3.6646 7.28889 3.27582 7.71556 3.00223 8.256C2.72865 8.78222 2.59186 9.39378 2.59186 10.0907C2.59186 10.7733 2.72865 11.3849 3.00223 11.9253C3.29022 12.4516 3.679 12.8711 4.16857 13.184C4.67254 13.4969 5.24851 13.6533 5.89648 13.6533C6.25646 13.6533 6.56604 13.632 6.82522 13.5893C7.08441 13.5467 7.3004 13.4827 7.47319 13.3973C7.67478 13.2836 7.85477 13.1627 8.01316 13.0347C8.17155 12.9067 8.40914 12.8427 8.72592 12.8427C9.1003 12.8427 9.38828 12.9636 9.58987 13.2053C9.79146 13.4329 9.89225 13.7173 9.89225 14.0587C9.89225 14.4142 9.69067 14.7413 9.28749 15.04C8.88431 15.3244 8.35154 15.5591 7.68918 15.744C7.04121 15.9147 6.33565 16 5.57249 16C4.43496 16 3.44861 15.744 2.61346 15.232C1.7783 14.7058 1.13034 13.9947 0.669563 13.0987C0.223188 12.2027 0 11.2 0 10.0907C0 8.92444 0.237587 7.90044 0.712761 7.01867C1.20233 6.12267 1.8719 5.42578 2.72145 4.928C3.5854 4.416 4.57175 4.16 5.68049 4.16Z" fill="white"/>
<path d="M22.971 10.0907C22.971 11.2569 22.7046 12.288 22.1719 13.184C21.6535 14.0658 20.9479 14.7556 20.0552 15.2533C19.1768 15.7511 18.1905 16 17.0961 16C16.0018 16 15.0082 15.7511 14.1155 15.2533C13.2371 14.7556 12.5316 14.0658 11.9988 13.184C11.4804 12.288 11.2213 11.2569 11.2213 10.0907C11.2213 8.92444 11.4804 7.90044 11.9988 7.01867C12.5316 6.12267 13.2371 5.42578 14.1155 4.928C15.0082 4.416 16.0018 4.16 17.0961 4.16C18.1905 4.16 19.1768 4.416 20.0552 4.928C20.9479 5.42578 21.6535 6.12267 22.1719 7.01867C22.7046 7.90044 22.971 8.92444 22.971 10.0907ZM20.3792 10.0907C20.3792 9.36533 20.228 8.73956 19.9256 8.21333C19.6376 7.67289 19.2416 7.25333 18.7376 6.95467C18.2481 6.656 17.7009 6.50667 17.0961 6.50667C16.4914 6.50667 15.937 6.656 15.433 6.95467C14.9435 7.25333 14.5475 7.67289 14.2451 8.21333C13.9571 8.73956 13.8131 9.36533 13.8131 10.0907C13.8131 10.8018 13.9571 11.4276 14.2451 11.968C14.5475 12.4942 14.9435 12.9067 15.433 13.2053C15.937 13.504 16.4914 13.6533 17.0961 13.6533C17.7009 13.6533 18.2481 13.504 18.7376 13.2053C19.2416 12.9067 19.6376 12.4942 19.9256 11.968C20.228 11.4276 20.3792 10.8018 20.3792 10.0907Z" fill="white"/>
<path d="M33.8141 4.37333C34.1885 4.37333 34.4981 4.50133 34.7429 4.75733C34.9877 4.99911 35.1101 5.30489 35.1101 5.67467V11.0933C35.1101 12.6009 34.6853 13.7956 33.8357 14.6773C32.9862 15.5591 31.7622 16 30.1639 16C28.5656 16 27.3417 15.5591 26.4921 14.6773C25.657 13.7956 25.2394 12.6009 25.2394 11.0933V5.67467C25.2394 5.30489 25.3618 4.99911 25.6066 4.75733C25.8514 4.50133 26.1609 4.37333 26.5353 4.37333C26.9097 4.37333 27.2193 4.50133 27.4641 4.75733C27.7089 4.99911 27.8312 5.30489 27.8312 5.67467V11.0933C27.8312 11.9609 28.0256 12.608 28.4144 13.0347C28.8032 13.4471 29.3864 13.6533 30.1639 13.6533C30.9559 13.6533 31.5462 13.4471 31.935 13.0347C32.3238 12.608 32.5182 11.9609 32.5182 11.0933V5.67467C32.5182 5.30489 32.6406 4.99911 32.8854 4.75733C33.1302 4.50133 33.4397 4.37333 33.8141 4.37333Z" fill="white"/>
<path d="M39.212 15.7867C38.8376 15.7867 38.528 15.6658 38.2832 15.424C38.0384 15.168 37.916 14.8551 37.916 14.4853V5.67467C37.916 5.30489 38.0384 4.99911 38.2832 4.75733C38.528 4.50133 38.8376 4.37333 39.212 4.37333C39.5863 4.37333 39.8959 4.50133 40.1407 4.75733C40.3855 4.99911 40.5079 5.30489 40.5079 5.67467V7.68L40.3567 6.25067C40.5151 5.90933 40.7167 5.61067 40.9615 5.35467C41.2206 5.08444 41.5086 4.864 41.8254 4.69333C42.1422 4.50844 42.4806 4.37333 42.8406 4.288C43.2005 4.20267 43.5605 4.16 43.9205 4.16C44.3525 4.16 44.7125 4.28089 45.0004 4.52267C45.3028 4.76444 45.454 5.04889 45.454 5.376C45.454 5.84533 45.3316 6.18667 45.0868 6.4C44.8421 6.59911 44.5757 6.69867 44.2877 6.69867C44.0141 6.69867 43.7621 6.64889 43.5317 6.54933C43.3157 6.44978 43.0638 6.4 42.7758 6.4C42.5166 6.4 42.2502 6.464 41.9766 6.592C41.7174 6.70578 41.4726 6.89067 41.2423 7.14667C41.0263 7.40267 40.8463 7.72267 40.7023 8.10667C40.5727 8.47644 40.5079 8.91733 40.5079 9.42933V14.4853C40.5079 14.8551 40.3855 15.168 40.1407 15.424C39.8959 15.6658 39.5863 15.7867 39.212 15.7867Z" fill="white"/>
<path d="M46.6116 14.016C46.4676 13.8169 46.4028 13.5609 46.4172 13.248C46.4316 12.9351 46.6188 12.6649 46.9788 12.4373C47.2091 12.2951 47.4539 12.2382 47.7131 12.2667C47.9723 12.2809 48.2243 12.4089 48.4691 12.6507C48.8867 13.0631 49.3258 13.3831 49.7866 13.6107C50.2474 13.8382 50.8234 13.952 51.5145 13.952C51.7305 13.9378 51.9681 13.9093 52.2273 13.8667C52.4865 13.8098 52.7096 13.696 52.8968 13.5253C53.0984 13.3404 53.1992 13.0631 53.1992 12.6933C53.1992 12.3804 53.0912 12.1316 52.8752 11.9467C52.6593 11.7618 52.3713 11.6053 52.0113 11.4773C51.6657 11.3493 51.2769 11.2284 50.845 11.1147C50.3986 10.9867 49.9378 10.8444 49.4626 10.688C49.0019 10.5316 48.5771 10.3324 48.1883 10.0907C47.7995 9.83467 47.4827 9.50044 47.2379 9.088C46.9932 8.67556 46.8708 8.15644 46.8708 7.53067C46.8708 6.81956 47.0724 6.21511 47.4755 5.71733C47.8787 5.21956 48.3971 4.83556 49.0307 4.56533C49.6786 4.29511 50.3554 4.16 51.0609 4.16C51.5073 4.16 51.9753 4.21689 52.4649 4.33067C52.9544 4.43022 53.4224 4.60089 53.8688 4.84267C54.3152 5.07022 54.6895 5.376 54.9919 5.76C55.1503 5.97333 55.2439 6.22933 55.2727 6.528C55.3015 6.82667 55.1647 7.09689 54.8623 7.33867C54.6463 7.50933 54.3944 7.58756 54.1064 7.57333C53.8184 7.54489 53.5808 7.44533 53.3936 7.27467C53.1488 6.96178 52.8176 6.71289 52.4001 6.528C51.9969 6.34311 51.5289 6.25067 50.9961 6.25067C50.7802 6.25067 50.5426 6.27911 50.2834 6.336C50.0386 6.37867 49.8226 6.48533 49.6354 6.656C49.4482 6.81244 49.3546 7.06844 49.3546 7.424C49.3546 7.75111 49.4626 8.01422 49.6786 8.21333C49.8946 8.39822 50.1826 8.55467 50.5426 8.68267C50.9169 8.79644 51.3129 8.91022 51.7305 9.024C52.1625 9.13778 52.6017 9.27289 53.048 9.42933C53.4944 9.58578 53.9048 9.792 54.2792 10.048C54.6535 10.304 54.9559 10.6382 55.1863 11.0507C55.4167 11.4489 55.5319 11.9609 55.5319 12.5867C55.5319 13.312 55.3159 13.9307 54.8839 14.4427C54.4519 14.9547 53.912 15.3458 53.264 15.616C52.6161 15.872 51.9537 16 51.2769 16C50.4274 16 49.5778 15.8578 48.7283 15.5733C47.8787 15.2747 47.1731 14.7556 46.6116 14.016Z" fill="white"/>
<path d="M63.1438 16C61.9198 16 60.8543 15.7511 59.9472 15.2533C59.0544 14.7413 58.3633 14.0516 57.8737 13.184C57.3985 12.3164 57.1609 11.3351 57.1609 10.24C57.1609 8.96 57.4201 7.872 57.9385 6.976C58.4712 6.06578 59.1624 5.36889 60.012 4.88533C60.8615 4.40178 61.7615 4.16 62.7118 4.16C63.4462 4.16 64.1373 4.30933 64.7853 4.608C65.4477 4.90667 66.0308 5.31911 66.5348 5.84533C67.0388 6.35733 67.4348 6.95467 67.7227 7.63733C68.0251 8.32 68.1763 9.04533 68.1763 9.81333C68.1619 10.1547 68.0251 10.432 67.7659 10.6453C67.5067 10.8587 67.2044 10.9653 66.8588 10.9653H64.7961H62.7334H60.6707H58.608L57.9601 8.832H59.9418H60.9326H61.9235H62.9143H63.9051H64.896H65.8868L65.4117 9.25867V8.68267C65.3829 8.27022 65.2317 7.90044 64.9581 7.57333C64.6989 7.24622 64.3677 6.99022 63.9645 6.80533C63.5758 6.60622 63.1582 6.50667 62.7118 6.50667C62.2798 6.50667 61.8767 6.56356 61.5023 6.67733C61.1279 6.79111 60.8039 6.98311 60.5303 7.25333C60.2567 7.52356 60.0408 7.88622 59.8824 8.34133C59.724 8.79644 59.6448 9.37245 59.6448 10.0693C59.6448 10.8373 59.8032 11.4916 60.1199 12.032C60.4511 12.5582 60.8687 12.9636 61.3727 13.248C61.891 13.5182 62.4382 13.6533 63.0142 13.6533C63.547 13.6533 63.9717 13.6107 64.2885 13.5253C64.6053 13.44 64.8573 13.3404 65.0445 13.2267C65.2461 13.0987 65.4261 12.992 65.5844 12.9067C65.8436 12.7787 66.0884 12.7147 66.3188 12.7147C66.6356 12.7147 66.8948 12.8213 67.0964 13.0347C67.3123 13.248 67.4203 13.4969 67.4203 13.7813C67.4203 14.1653 67.2188 14.5138 66.8156 14.8267C66.4412 15.1396 65.9156 15.4169 65.2389 15.6587C64.5621 15.8862 63.8637 16 63.1438 16Z" fill="white"/>
<path d="M76.3805 0C76.6973 0 77.0069 0.0426665 77.3092 0.128C77.6116 0.213333 77.8636 0.355555 78.0652 0.554666C78.2668 0.739555 78.3676 0.988444 78.3676 1.30133C78.3676 1.65689 78.2596 1.94133 78.0436 2.15467C77.842 2.35378 77.6044 2.45333 77.3308 2.45333C77.2012 2.45333 77.0068 2.42489 76.7477 2.368C76.4885 2.29689 76.2365 2.26133 75.9917 2.26133C75.6317 2.26133 75.3509 2.33956 75.1494 2.496C74.9622 2.65244 74.8326 2.83733 74.7606 3.05067C74.6886 3.24978 74.6526 3.42756 74.6526 3.584V14.4853C74.6526 14.8551 74.5302 15.168 74.2854 15.424C74.0406 15.6658 73.731 15.7867 73.3567 15.7867C72.9823 15.7867 72.6727 15.6658 72.4279 15.424C72.1831 15.168 72.0607 14.8551 72.0607 14.4853V3.60533C72.0607 2.59556 72.4207 1.74222 73.1407 1.04533C73.8606 0.348444 74.9406 0 76.3805 0ZM76.6181 4.58667C76.9637 4.58667 77.2516 4.70044 77.482 4.928C77.7124 5.14133 77.8276 5.41867 77.8276 5.76C77.8276 6.10133 77.7124 6.38578 77.482 6.61333C77.2516 6.82667 76.9637 6.93333 76.6181 6.93333H70.8944C70.5488 6.93333 70.2608 6.82667 70.0304 6.61333C69.8 6.38578 69.6848 6.10133 69.6848 5.76C69.6848 5.41867 69.8 5.14133 70.0304 4.928C70.2608 4.70044 70.5488 4.58667 70.8944 4.58667H76.6181ZM82.3202 14.4853C82.3202 14.8551 82.1978 15.168 81.953 15.424C81.7082 15.6658 81.3986 15.7867 81.0242 15.7867C80.6498 15.7867 80.3403 15.6658 80.0955 15.424C79.8507 15.168 79.7283 14.8551 79.7283 14.4853V13.384V12.2827V11.1813V10.08V8.97867V7.87733V6.776V5.67467C79.7283 5.30489 79.8507 4.99911 80.0955 4.75733C80.3403 4.50133 80.6498 4.37333 81.0242 4.37333C81.3986 4.37333 81.7082 4.50133 81.953 4.75733C82.1978 4.99911 82.3202 5.30489 82.3202 5.67467V6.776V7.87733V8.97867V10.08V11.1813V12.2827V13.384V14.4853ZM81.0026 2.98667C80.5131 2.98667 80.1675 2.90844 79.9659 2.752C79.7643 2.59556 79.6635 2.31822 79.6635 1.92V1.51467C79.6635 1.10222 79.7715 0.824889 79.9875 0.682667C80.2179 0.526222 80.5634 0.447999 81.0242 0.447999C81.5282 0.447999 81.881 0.526222 82.0826 0.682667C82.2842 0.839111 82.385 1.11644 82.385 1.51467V1.92C82.385 2.33244 82.277 2.61689 82.061 2.77333C81.845 2.91556 81.4922 2.98667 81.0026 2.98667Z" fill="white"/>
<path d="M91.1509 4.16C92.2164 4.16 93.0228 4.38044 93.5699 4.82133C94.1315 5.26222 94.5131 5.85244 94.7147 6.592C94.9306 7.31733 95.0387 8.128 95.0387 9.024V14.4853C95.0387 14.8551 94.9163 15.168 94.6715 15.424C94.4267 15.6658 94.1171 15.7867 93.7427 15.7867C93.3683 15.7867 93.0588 15.6658 92.814 15.424C92.5692 15.168 92.4468 14.8551 92.4468 14.4853V9.024C92.4468 8.55467 92.382 8.13511 92.2524 7.76533C92.1372 7.38133 91.9212 7.07555 91.6044 6.848C91.2877 6.62044 90.8341 6.50667 90.2437 6.50667C89.6677 6.50667 89.1782 6.62044 88.775 6.848C88.3862 7.07555 88.0838 7.38133 87.8678 7.76533C87.6663 8.13511 87.5655 8.55467 87.5655 9.024V14.4853C87.5655 14.8551 87.4431 15.168 87.1983 15.424C86.9535 15.6658 86.6439 15.7867 86.2695 15.7867C85.8951 15.7867 85.5856 15.6658 85.3408 15.424C85.096 15.168 84.9736 14.8551 84.9736 14.4853V5.67467C84.9736 5.30489 85.096 4.99911 85.3408 4.75733C85.5856 4.50133 85.8951 4.37333 86.2695 4.37333C86.6439 4.37333 86.9535 4.50133 87.1983 4.75733C87.4431 4.99911 87.5655 5.30489 87.5655 5.67467V6.592L87.2415 6.528C87.3711 6.28622 87.5583 6.03022 87.803 5.76C88.0478 5.47556 88.3358 5.21244 88.667 4.97067C88.9982 4.72889 89.3726 4.53689 89.7901 4.39467C90.2077 4.23822 90.6613 4.16 91.1509 4.16Z" fill="white"/>
<path d="M107.3 0C107.675 0 107.984 0.120889 108.229 0.362666C108.474 0.604444 108.596 0.917333 108.596 1.30133V14.4853C108.596 14.8551 108.474 15.168 108.229 15.424C107.984 15.6658 107.675 15.7867 107.3 15.7867C106.926 15.7867 106.616 15.6658 106.372 15.424C106.127 15.168 106.004 14.8551 106.004 14.4853V13.44L106.48 13.632C106.48 13.8169 106.379 14.0444 106.177 14.3147C105.976 14.5707 105.702 14.8267 105.356 15.0827C105.011 15.3387 104.601 15.5591 104.125 15.744C103.665 15.9147 103.161 16 102.613 16C101.62 16 100.72 15.7511 99.9136 15.2533C99.1072 14.7413 98.4665 14.0444 97.9913 13.1627C97.5305 12.2667 97.3001 11.2427 97.3001 10.0907C97.3001 8.92444 97.5305 7.90044 97.9913 7.01867C98.4665 6.12267 99.1 5.42578 99.892 4.928C100.684 4.416 101.562 4.16 102.527 4.16C103.146 4.16 103.715 4.25244 104.233 4.43733C104.752 4.62222 105.198 4.85689 105.572 5.14133C105.961 5.42578 106.256 5.71733 106.458 6.016C106.674 6.30044 106.782 6.54222 106.782 6.74133L106.004 7.01867V1.30133C106.004 0.931555 106.127 0.625777 106.372 0.383999C106.616 0.128 106.926 0 107.3 0ZM102.937 13.6533C103.571 13.6533 104.125 13.4969 104.601 13.184C105.076 12.8711 105.443 12.4444 105.702 11.904C105.976 11.3636 106.112 10.7591 106.112 10.0907C106.112 9.408 105.976 8.79644 105.702 8.256C105.443 7.71556 105.076 7.28889 104.601 6.976C104.125 6.66311 103.571 6.50667 102.937 6.50667C102.318 6.50667 101.771 6.66311 101.296 6.976C100.821 7.28889 100.446 7.71556 100.173 8.256C99.9136 8.79644 99.784 9.408 99.784 10.0907C99.784 10.7591 99.9136 11.3636 100.173 11.904C100.446 12.4444 100.821 12.8711 101.296 13.184C101.771 13.4969 102.318 13.6533 102.937 13.6533Z" fill="white"/>
<path d="M116.846 16C115.622 16 114.556 15.7511 113.649 15.2533C112.756 14.7413 112.065 14.0516 111.575 13.184C111.1 12.3164 110.863 11.3351 110.863 10.24C110.863 8.96 111.122 7.872 111.64 6.976C112.173 6.06578 112.864 5.36889 113.714 4.88533C114.563 4.40178 115.463 4.16 116.414 4.16C117.148 4.16 117.839 4.30933 118.487 4.608C119.149 4.90667 119.733 5.31911 120.237 5.84533C120.741 6.35733 121.136 6.95467 121.424 7.63733C121.727 8.32 121.878 9.04533 121.878 9.81333C121.864 10.1547 121.727 10.432 121.468 10.6453C121.208 10.8587 120.906 10.9653 120.561 10.9653H112.31L111.662 8.832H119.589L119.113 9.25867V8.68267C119.085 8.27022 118.933 7.90044 118.66 7.57333C118.401 7.24622 118.069 6.99022 117.666 6.80533C117.278 6.60622 116.86 6.50667 116.414 6.50667C115.982 6.50667 115.578 6.56356 115.204 6.67733C114.83 6.79111 114.506 6.98311 114.232 7.25333C113.958 7.52356 113.742 7.88622 113.584 8.34133C113.426 8.79644 113.347 9.37245 113.347 10.0693C113.347 10.8373 113.505 11.4916 113.822 12.032C114.153 12.5582 114.57 12.9636 115.074 13.248C115.593 13.5182 116.14 13.6533 116.716 13.6533C117.249 13.6533 117.673 13.6107 117.99 13.5253C118.307 13.44 118.559 13.3404 118.746 13.2267C118.948 13.0987 119.128 12.992 119.286 12.9067C119.545 12.7787 119.79 12.7147 120.021 12.7147C120.337 12.7147 120.597 12.8213 120.798 13.0347C121.014 13.248 121.122 13.4969 121.122 13.7813C121.122 14.1653 120.921 14.5138 120.517 14.8267C120.143 15.1396 119.617 15.4169 118.941 15.6587C118.264 15.8862 117.565 16 116.846 16Z" fill="white"/>
<path d="M125.438 15.7867C125.064 15.7867 124.755 15.6658 124.51 15.424C124.265 15.168 124.143 14.8551 124.143 14.4853V5.67467C124.143 5.30489 124.265 4.99911 124.51 4.75733C124.755 4.50133 125.064 4.37333 125.438 4.37333C125.813 4.37333 126.122 4.50133 126.367 4.75733C126.612 4.99911 126.734 5.30489 126.734 5.67467V7.68L126.583 6.25067C126.742 5.90933 126.943 5.61067 127.188 5.35467C127.447 5.08444 127.735 4.864 128.052 4.69333C128.369 4.50844 128.707 4.37333 129.067 4.288C129.427 4.20267 129.787 4.16 130.147 4.16C130.579 4.16 130.939 4.28089 131.227 4.52267C131.529 4.76444 131.681 5.04889 131.681 5.376C131.681 5.84533 131.558 6.18667 131.313 6.4C131.069 6.59911 130.802 6.69867 130.514 6.69867C130.241 6.69867 129.989 6.64889 129.758 6.54933C129.542 6.44978 129.29 6.4 129.002 6.4C128.743 6.4 128.477 6.464 128.203 6.592C127.944 6.70578 127.699 6.89067 127.469 7.14667C127.253 7.40267 127.073 7.72267 126.929 8.10667C126.799 8.47644 126.734 8.91733 126.734 9.42933V14.4853C126.734 14.8551 126.612 15.168 126.367 15.424C126.122 15.6658 125.813 15.7867 125.438 15.7867Z" fill="white"/>
<path d="M132.079 15.7653C131.662 15.7653 131.338 15.6587 131.107 15.4453C130.891 15.2178 130.783 14.8978 130.783 14.4853V14.1227C130.783 13.7102 130.891 13.3973 131.107 13.184C131.338 12.9564 131.662 12.8427 132.079 12.8427H132.36C132.777 12.8427 133.094 12.9564 133.31 13.184C133.541 13.3973 133.656 13.7102 133.656 14.1227V14.4853C133.656 14.8978 133.541 15.2178 133.31 15.4453C133.094 15.6587 132.777 15.7653 132.36 15.7653H132.079Z" fill="white"/>
<path d="M145.773 4.16C146.148 4.16 146.457 4.28089 146.702 4.52267C146.947 4.76444 147.069 5.07733 147.069 5.46133V14.4853C147.069 14.8551 146.947 15.168 146.702 15.424C146.457 15.6658 146.148 15.7867 145.773 15.7867C145.399 15.7867 145.089 15.6658 144.844 15.424C144.6 15.168 144.477 14.8551 144.477 14.4853V13.44L144.952 13.632C144.952 13.8169 144.852 14.0444 144.65 14.3147C144.449 14.5707 144.175 14.8267 143.829 15.0827C143.484 15.3387 143.073 15.5591 142.598 15.744C142.137 15.9147 141.633 16 141.086 16C140.093 16 139.193 15.7511 138.386 15.2533C137.58 14.7413 136.939 14.0444 136.464 13.1627C136.003 12.2667 135.773 11.2427 135.773 10.0907C135.773 8.92444 136.003 7.90044 136.464 7.01867C136.939 6.12267 137.573 5.42578 138.365 4.928C139.157 4.416 140.035 4.16 141 4.16C141.619 4.16 142.188 4.25244 142.706 4.43733C143.225 4.62222 143.671 4.85689 144.045 5.14133C144.434 5.42578 144.729 5.71733 144.931 6.016C145.147 6.30044 145.255 6.54222 145.255 6.74133L144.477 7.01867V5.46133C144.477 5.09156 144.6 4.78578 144.844 4.544C145.089 4.288 145.399 4.16 145.773 4.16ZM141.41 13.6533C142.044 13.6533 142.598 13.4969 143.073 13.184C143.549 12.8711 143.916 12.4444 144.175 11.904C144.449 11.3636 144.585 10.7591 144.585 10.0907C144.585 9.408 144.449 8.79644 144.175 8.256C143.916 7.71556 143.549 7.28889 143.073 6.976C142.598 6.66311 142.044 6.50667 141.41 6.50667C140.791 6.50667 140.244 6.66311 139.769 6.976C139.294 7.28889 138.919 7.71556 138.646 8.256C138.386 8.79644 138.257 9.408 138.257 10.0907C138.257 10.7591 138.386 11.3636 138.646 11.904C138.919 12.4444 139.294 12.8711 139.769 13.184C140.244 13.4969 140.791 13.6533 141.41 13.6533Z" fill="white"/>
<path d="M152.316 14.4853C152.316 14.8551 152.194 15.168 151.949 15.424C151.704 15.6658 151.395 15.7867 151.02 15.7867C150.646 15.7867 150.336 15.6658 150.091 15.424C149.847 15.168 149.724 14.8551 149.724 14.4853V5.67467C149.724 5.30489 149.847 4.99911 150.091 4.75733C150.336 4.50133 150.646 4.37333 151.02 4.37333C151.395 4.37333 151.704 4.50133 151.949 4.75733C152.194 4.99911 152.316 5.30489 152.316 5.67467V14.4853ZM150.999 2.98667C150.509 2.98667 150.163 2.90844 149.962 2.752C149.76 2.59556 149.66 2.31822 149.66 1.92V1.51467C149.66 1.10222 149.768 0.824889 149.983 0.682667C150.214 0.526222 150.559 0.447999 151.02 0.447999C151.524 0.447999 151.877 0.526222 152.079 0.682667C152.28 0.839111 152.381 1.11644 152.381 1.51467V1.92C152.381 2.33244 152.273 2.61689 152.057 2.77333C151.841 2.91556 151.488 2.98667 150.999 2.98667Z" fill="white"/>
</g>
</svg>
