<svg width="24" height="24" viewBox="0 0 24 24" fill="none" xmlns="http://www.w3.org/2000/svg">
<g id="Frame 1000001535">
<g id="Group 1000001078">
<g id="Group 1000001079">
<path id="Vector" opacity="0.6" d="M21.2849 16.5342C21.2849 17.0616 21.0921 17.5674 20.7489 17.9403C20.4058 18.3133 19.9404 18.5228 19.455 18.5228H8.47607L4.81641 22.4999V6.59135C4.81641 6.06395 5.00919 5.55815 5.35235 5.18522C5.69551 4.81229 6.16094 4.60278 6.64624 4.60278H19.455C19.9404 4.60278 20.4058 4.81229 20.7489 5.18522C21.0921 5.55815 21.2849 6.06395 21.2849 6.59135V16.5342Z" fill="#226CF5"/>
<path id="Vector_2" d="M19.1833 14.4314C19.1833 14.9588 18.9905 15.4646 18.6474 15.8376C18.3042 16.2105 17.8388 16.42 17.3535 16.42H6.3745L2.71484 20.3971V4.48857C2.71484 3.96117 2.90763 3.45537 3.25079 3.08244C3.59395 2.70951 4.05937 2.5 4.54467 2.5H17.3535C17.8388 2.5 18.3042 2.70951 18.6474 3.08244C18.9905 3.45537 19.1833 3.96117 19.1833 4.48857V14.4314Z" fill="white"/>
<path id="Vector_3" d="M2.71484 5.48286V4.48857C2.71484 3.96117 2.90763 3.45537 3.25079 3.08244C3.59395 2.70951 4.05937 2.5 4.54467 2.5H17.3535C17.8388 2.5 18.3042 2.70951 18.6474 3.08244C18.9905 3.45537 19.1833 3.96117 19.1833 4.48857V14.4314C19.1833 14.9588 18.9905 15.4646 18.6474 15.8376C18.3042 16.2105 17.8388 16.42 17.3535 16.42H6.3745L2.71484 20.3971V12.4429V11.9982M2.71484 7.99892V8.56178V9.24314" stroke="#3B3B3B" stroke-width="1.5" stroke-linecap="round" stroke-linejoin="round"/>
<path id="Line 446" d="M6.95703 11.1641L12.1765 11.1641" stroke="#3B3B3B" stroke-width="1.5" stroke-linecap="round"/>
<path id="Line 447" d="M15.3242 8.36499L10.1047 8.36499L7.83164 8.36499L6.95775 8.36499" stroke="#3B3B3B" stroke-width="1.5" stroke-linecap="round"/>
</g>
</g>
</g>
</svg>
