<svg width="24" height="24" viewBox="0 0 24 24" fill="none" xmlns="http://www.w3.org/2000/svg">
<path d="M5.99999 7.79998C5.99999 7.64085 6.06321 7.48823 6.17573 7.37571C6.28825 7.26319 6.44086 7.19998 6.59999 7.19998H15C15.1591 7.19998 15.3117 7.26319 15.4243 7.37571C15.5368 7.48823 15.6 7.64085 15.6 7.79998C15.6 7.95911 15.5368 8.11172 15.4243 8.22424C15.3117 8.33676 15.1591 8.39998 15 8.39998H6.59999C6.44086 8.39998 6.28825 8.33676 6.17573 8.22424C6.06321 8.11172 5.99999 7.95911 5.99999 7.79998ZM12.6 10.8C12.4409 10.8 12.2883 10.8632 12.1757 10.9757C12.0632 11.0882 12 11.2408 12 11.4C12 11.5591 12.0632 11.7117 12.1757 11.8242C12.2883 11.9368 12.4409 12 12.6 12H15C15.1591 12 15.3117 11.9368 15.4243 11.8242C15.5368 11.7117 15.6 11.5591 15.6 11.4C15.6 11.2408 15.5368 11.0882 15.4243 10.9757C15.3117 10.8632 15.1591 10.8 15 10.8H12.6ZM12 15C12 14.8408 12.0632 14.6882 12.1757 14.5757C12.2883 14.4632 12.4409 14.4 12.6 14.4H15C15.1591 14.4 15.3117 14.4632 15.4243 14.5757C15.5368 14.6882 15.6 14.8408 15.6 15C15.6 15.1591 15.5368 15.3117 15.4243 15.4242C15.3117 15.5368 15.1591 15.6 15 15.6H12.6C12.4409 15.6 12.2883 15.5368 12.1757 15.4242C12.0632 15.3117 12 15.1591 12 15ZM6.59999 10.8C6.44086 10.8 6.28825 10.8632 6.17573 10.9757C6.06321 11.0882 5.99999 11.2408 5.99999 11.4V15C5.99999 15.1591 6.06321 15.3117 6.17573 15.4242C6.28825 15.5368 6.44086 15.6 6.59999 15.6H10.2C10.3591 15.6 10.5117 15.5368 10.6243 15.4242C10.7368 15.3117 10.8 15.1591 10.8 15V11.4C10.8 11.2408 10.7368 11.0882 10.6243 10.9757C10.5117 10.8632 10.3591 10.8 10.2 10.8H6.59999ZM7.19999 14.4V12H9.59999V14.4H7.19999ZM2.39999 5.99998C2.39999 5.36346 2.65285 4.75301 3.10294 4.30292C3.55302 3.85283 4.16347 3.59998 4.79999 3.59998H16.8C17.4365 3.59998 18.047 3.85283 18.4971 4.30292C18.9471 4.75301 19.2 5.36346 19.2 5.99998V7.19998C19.8365 7.19998 20.447 7.45283 20.8971 7.90292C21.3471 8.35301 21.6 8.96346 21.6 9.59998V16.2C21.6 16.9956 21.2839 17.7587 20.7213 18.3213C20.1587 18.8839 19.3956 19.2 18.6 19.2H5.39999C4.60434 19.2 3.84128 18.8839 3.27867 18.3213C2.71606 17.7587 2.39999 16.9956 2.39999 16.2V5.99998ZM18 5.99998C18 5.68172 17.8736 5.37649 17.6485 5.15145C17.4235 4.9264 17.1183 4.79998 16.8 4.79998H4.79999C4.48173 4.79998 4.17651 4.9264 3.95147 5.15145C3.72642 5.37649 3.59999 5.68172 3.59999 5.99998V16.2C3.59999 16.6774 3.78964 17.1352 4.1272 17.4728C4.46477 17.8103 4.9226 18 5.39999 18H18.6C19.0774 18 19.5352 17.8103 19.8728 17.4728C20.2104 17.1352 20.4 16.6774 20.4 16.2V9.59998C20.4 9.28172 20.2736 8.97649 20.0485 8.75145C19.8235 8.5264 19.5183 8.39998 19.2 8.39998V16.2C19.2 16.3591 19.1368 16.5117 19.0243 16.6242C18.9117 16.7368 18.7591 16.8 18.6 16.8C18.4409 16.8 18.2883 16.7368 18.1757 16.6242C18.0632 16.5117 18 16.3591 18 16.2V5.99998Z" fill="#226CF5"/>
</svg>
