<svg width="24" height="24" viewBox="0 0 24 24" fill="none" xmlns="http://www.w3.org/2000/svg">
<g id="home">
<g id="Group 1000000926">
<rect id="Rectangle 9054" x="9" y="12.5636" width="6" height="9" fill="#E4ECFD"/>
<path id="Vector" d="M3 9.05268C3 8.74409 3.14247 8.45279 3.38606 8.26333L11.3861 2.04111C11.7472 1.76024 12.2528 1.76024 12.6139 2.04111L20.6139 8.26333C20.8575 8.45279 21 8.74409 21 9.05268V19.5636C21 20.094 20.7893 20.6027 20.4142 20.9778C20.0391 21.3529 19.5304 21.5636 19 21.5636H5C4.46957 21.5636 3.96086 21.3529 3.58579 20.9778C3.21071 20.6027 3 20.094 3 19.5636V9.05268Z" stroke="white" stroke-width="1.5" stroke-linecap="round" stroke-linejoin="round"/>
<path id="Vector_2" d="M8.72729 20.8363V12.1091H15.2727V16.4727M15.2727 18.6545V19.7454" stroke="white" stroke-width="1.5" stroke-linecap="round" stroke-linejoin="round"/>
</g>
</g>
</svg>
