<svg width="22" height="22" viewBox="0 0 22 22" fill="none" xmlns="http://www.w3.org/2000/svg">
<g id="info" clip-path="url(#clip0_1079_101)">
<path id="Vector 2240" d="M3.49981 5.50003L11 2V16C9.3334 15.3333 5.4 13.4 5 13C5.0598 13.299 5.5 17.6772 5.5 17.9821V19.8967C5.5 19.9653 5.48323 20.0342 5.45143 20.095C4.31191 22.2729 3.0935 21.0895 2.56197 20.1184C2.5193 20.0404 2.49135 19.957 2.47407 19.8698C2.12831 18.1263 1.38976 14.1196 0.999808 11C0.599808 7.80003 2.49981 6.00003 3.49981 5.50003Z" fill="white"/>
<circle id="Ellipse 867" cx="14" cy="9" r="2" fill="#3B3B3B"/>
<path id="Vector 2239" d="M11 2L3.49981 5.50003C2.49981 6.00003 0.599808 7.80003 0.999808 11C1.38976 14.1196 2.12831 18.1263 2.47407 19.8698C2.49135 19.957 2.5193 20.0404 2.56197 20.1184C3.08395 21.072 4.26837 22.2305 5.38995 20.2091C5.46528 20.0734 5.5 19.9202 5.5 19.7649C5.5 18.0485 5.5 15.1181 5.5 15.5C5.5 15.9 6.83333 16.3334 7.5 16.5M5 13C5.4 13.4 9.3334 15.3333 11 16" stroke="#3B3B3B" stroke-width="1.5" stroke-linecap="round" stroke-linejoin="round"/>
<path id="Vector 2238" d="M11.8073 0.3743L14.7812 0.448172L13.3071 3.57851C13.2507 3.69815 13.2187 3.82777 13.2128 3.95987L12.9641 9.51867C12.9619 9.56732 12.9633 9.61606 12.9682 9.66451L13.4671 14.571C13.4774 14.6723 13.5031 14.7715 13.5433 14.865L14.7544 17.6807H11.9945C11.5706 17.6807 11.1905 17.414 11.0634 17.0097C9.20187 11.0863 10.0302 4.39672 10.8394 1.09719C10.9476 0.656112 11.3533 0.363023 11.8073 0.3743Z" fill="#71C2FF"/>
<path id="Vector 2237" d="M16.5013 4.00003C16.5013 2.50003 16.1013 -0.199972 14.5013 1.00003C12.5013 2.50003 12.5013 17.5 15.0013 17.5C16.0013 17.5 16.5013 16.5 16.5013 14.5M17.5013 7L19.5013 4.5M18.0013 9.5H21.5013M17.5013 11.5L20.0013 14" stroke="#3B3B3B" stroke-width="1.5" stroke-linecap="round" stroke-linejoin="round"/>
</g>
<defs>
<clipPath id="clip0_1079_101">
<rect width="22" height="22" fill="white"/>
</clipPath>
</defs>
</svg>
