<svg width="24" height="24" viewBox="0 0 24 24" fill="none" xmlns="http://www.w3.org/2000/svg">
<g id="Frame 1000001731">
<circle id="Ellipse 868" cx="12" cy="20.7968" r="2" fill="white"/>
<path id="Ellipse 869" d="M13.1953 21.7968C12.4143 22.5779 11.4764 22.5779 10.6953 21.7968" stroke="#3B3B3B" stroke-linecap="round"/>
<path id="Rectangle 9245" d="M5.63142 9.83227C6.20605 6.76761 8.88194 4.54681 12 4.54681C15.1181 4.54681 17.794 6.76761 18.3686 9.83226L19.8825 17.9066C19.9936 18.4991 19.539 19.0468 18.9362 19.0468H5.0638C4.46095 19.0468 4.00639 18.4991 4.11749 17.9066L5.63142 9.83227Z" fill="white" stroke="#3B3B3B" stroke-width="1.5" stroke-linejoin="round"/>
<path id="Vector 2241" d="M6.19531 2.29681C5.02865 3.29681 3.19531 5.29681 2.69531 8.29681" stroke="#71C2FF" stroke-linecap="round"/>
<path id="Vector 2242" d="M17.6953 2.29681C18.862 3.29681 20.6953 5.29681 21.1953 8.29681" stroke="#71C2FF" stroke-linecap="round"/>
</g>
</svg>
