<svg width="24" height="24" viewBox="0 0 24 24" fill="none" xmlns="http://www.w3.org/2000/svg">
<g id="Frame 1000001535">
<g id="Group 1000001077">
<path id="Rectangle 9141" opacity="0.6" d="M6.90894 22.0001H18.5459C19.0982 22.0001 19.5459 21.5524 19.5459 21.0001V16.8617V14.6107V12.7109V9.36316C19.5459 8.81087 19.0982 8.36316 18.5459 8.36316H15.6657H6.90894C6.35665 8.36316 5.90894 8.81087 5.90894 9.36316V21.0001C5.90894 21.5524 6.35665 22.0001 6.90894 22.0001Z" fill="#226CF5"/>
<path id="Rectangle 9140" d="M4.32617 19.2066H15.9631C16.5154 19.2066 16.9631 18.7589 16.9631 18.2066V14.0682V11.8172V9.91739V6.56964C16.9631 6.01736 16.5154 5.56964 15.9631 5.56964H13.083H4.32617C3.77389 5.56964 3.32617 6.01736 3.32617 6.56964V18.2066C3.32617 18.7589 3.77389 19.2066 4.32617 19.2066Z" fill="white"/>
<path id="Rectangle 9139" d="M16.9631 9.91739V11.8172M13.083 5.56964H4.32617C3.77389 5.56964 3.32617 6.01736 3.32617 6.56964V18.2066C3.32617 18.7589 3.77389 19.2066 4.32617 19.2066H15.9631C16.5154 19.2066 16.9631 18.7589 16.9631 18.2066V14.0682" stroke="#3B3B3B" stroke-width="1.5" stroke-linecap="round" stroke-linejoin="round"/>
<path id="Arrow 1" d="M11.3448 10.268C11.0519 10.5609 11.0519 11.0358 11.3448 11.3287C11.6377 11.6216 12.1126 11.6216 12.4055 11.3287L11.3448 10.268ZM21.4233 2.00013C21.4233 1.58592 21.0875 1.25013 20.6733 1.25013L13.9233 1.25013C13.5091 1.25013 13.1733 1.58592 13.1733 2.00013C13.1733 2.41434 13.5091 2.75013 13.9233 2.75013H19.9233V8.75013C19.9233 9.16434 20.2591 9.50013 20.6733 9.50013C21.0875 9.50013 21.4233 9.16434 21.4233 8.75013L21.4233 2.00013ZM12.4055 11.3287L21.2037 2.53046L20.143 1.4698L11.3448 10.268L12.4055 11.3287Z" fill="#226CF5"/>
</g>
</g>
</svg>
