<svg width="24" height="24" viewBox="0 0 24 24" fill="none" xmlns="http://www.w3.org/2000/svg">
<g id="Frame 1000001530">
<g id="Group 1000001082">
<g id="Rectangle 9131">
<path d="M16.6914 19.0174C16.0547 18.3808 16.0547 17.3487 16.6914 16.712C17.328 16.0754 18.3601 16.0754 18.9967 16.712L20.8266 18.5419C21.4632 19.1786 21.4632 20.2107 20.8266 20.8473C20.19 21.4839 19.1579 21.4839 18.5213 20.8473L16.6914 19.0174Z" fill="#226CF5" fill-opacity="0.6"/>
<path d="M16.6914 16.712V16.712C16.0547 17.3487 16.0547 18.3808 16.6914 19.0174L18.5213 20.8473C19.1579 21.4839 20.19 21.4839 20.8266 20.8473V20.8473C21.4632 20.2107 21.4632 19.1786 20.8266 18.5419L18.9967 16.712C18.3601 16.0754 17.328 16.0754 16.6914 16.712V16.712ZM16.6914 16.712L15.502 15.5227" stroke="#3B3B3B" stroke-linecap="round"/>
</g>
<path id="Ellipse 846" d="M10.0215 2C10.3274 2.0405 10.6271 2.10058 10.9194 2.17893C11.1831 2.24965 11.4408 2.33526 11.6915 2.4348M14.0833 4.01048C14.2689 4.19632 14.4443 4.39246 14.6083 4.59795C14.7915 4.82729 14.9606 5.06829 15.1145 5.31966C15.3035 5.62842 15.4695 5.95282 15.61 6.29047C15.9574 7.12551 16.1493 8.04157 16.1493 9.00243C16.1493 12.9037 12.9867 16.0663 9.08539 16.0663C5.1841 16.0663 2.02148 12.9037 2.02148 9.00243C2.02148 5.73547 4.23927 2.9865 7.25142 2.17893" stroke="#3B3B3B" stroke-width="1.5" stroke-linecap="round"/>
<path id="Rectangle 9130" d="M16.6914 16.712V16.712C16.0547 17.3487 16.0547 18.3808 16.6914 19.0174L18.5213 20.8473C19.1579 21.4839 20.19 21.4839 20.8266 20.8473V20.8473C21.4632 20.2107 21.4632 19.1786 20.8266 18.5419L18.9967 16.712C18.3601 16.0754 17.328 16.0754 16.6914 16.712V16.712ZM16.6914 16.712L15.502 15.5227" stroke="#3B3B3B" stroke-width="1.5" stroke-linecap="round"/>
</g>
</g>
</svg>
