<svg width="24" height="24" viewBox="0 0 24 24" fill="none" xmlns="http://www.w3.org/2000/svg">
<g id="Frame 1000001532">
<g id="Group 1000001081">
<path id="Rectangle 9138" d="M22 3H4C2.89543 3 2 3.89543 2 5V19C2 20.1046 2.89543 21 4 21H18H22V3Z" fill="white"/>
<path id="Rectangle 9135" d="M22 3H20.4983H19.5531M18 21H4C2.89543 21 2 20.1046 2 19V5C2 3.89543 2.89543 3 4 3H16.4686" stroke="#3B3B3B" stroke-width="1.5" stroke-linecap="round"/>
<path id="Rectangle 9136" d="M22 10.5V10C22 8.89543 21.1046 8 20 8H2V19C2 20.1046 2.89543 21 4 21H20C21.1046 21 22 20.1046 22 19V18.5" stroke="#3B3B3B" stroke-width="1.5" stroke-linecap="round"/>
<path id="Rectangle 9137" opacity="0.6" d="M16 14.5C16 13.1193 17.1193 12 18.5 12H22V17H18.5C17.1193 17 16 15.8807 16 14.5Z" fill="#226CF5"/>
</g>
</g>
</svg>
